<svg width="20" height="17" viewBox="0 0 20 17" fill="none" xmlns="http://www.w3.org/2000/svg">
<mask id="path-1-inside-1_1352_888" fill="white">
<path d="M19.3756 8.68707C19.3748 7.85921 19.1395 7.04849 18.6971 6.34877C18.2547 5.64904 17.6231 5.08889 16.8756 4.73317V4.62457C16.8749 3.81928 16.6149 3.0356 16.1342 2.3895C15.6535 1.74341 14.9776 1.26922 14.2065 1.03709C13.4354 0.804969 12.61 0.827245 11.8526 1.10062C11.0951 1.374 10.4457 1.88396 10.0006 2.55504C9.55544 1.88396 8.90609 1.374 8.14861 1.10062C7.39114 0.827245 6.56578 0.804969 5.79466 1.03709C5.02354 1.26922 4.34763 1.74341 3.86694 2.3895C3.38625 3.0356 3.12631 3.81928 3.12559 4.62457V4.73317C2.37741 5.08792 1.74527 5.64771 1.30262 6.34748C0.859977 7.04725 0.625 7.85827 0.625 8.68629C0.625 9.51431 0.859977 10.3253 1.30262 11.0251C1.74527 11.7249 2.37741 12.2847 3.12559 12.6394V12.7496C3.12631 13.5549 3.38625 14.3385 3.86694 14.9846C4.34763 15.6307 5.02354 16.1049 5.79466 16.3371C6.56578 16.5692 7.39114 16.5469 8.14861 16.2735C8.90609 16.0001 9.55544 15.4902 10.0006 14.8191C10.4457 15.4902 11.0951 16.0001 11.8526 16.2735C12.61 16.5469 13.4354 16.5692 14.2065 16.3371C14.9776 16.1049 15.6535 15.6307 16.1342 14.9846C16.6149 14.3385 16.8749 13.5549 16.8756 12.7496V12.6394C17.623 12.284 18.2545 11.7241 18.6969 11.0246C19.1394 10.3252 19.3747 9.51471 19.3756 8.68707ZM6.87559 15.2496C6.25914 15.2495 5.66446 15.0216 5.20576 14.6098C4.74707 14.198 4.4567 13.6312 4.39043 13.0183C4.59254 13.0472 4.79643 13.0618 5.00059 13.0621H5.62559C5.79135 13.0621 5.95032 12.9962 6.06753 12.879C6.18474 12.7618 6.25059 12.6028 6.25059 12.4371C6.25059 12.2713 6.18474 12.1123 6.06753 11.9951C5.95032 11.8779 5.79135 11.8121 5.62559 11.8121H5.00059C4.26274 11.8129 3.54839 11.5527 2.98401 11.0774C2.41962 10.6021 2.04161 9.9425 1.9169 9.21527C1.79218 8.48805 1.92881 7.74014 2.3026 7.10398C2.67638 6.46782 3.26321 5.98444 3.95918 5.73942C4.08096 5.6963 4.18638 5.61651 4.26095 5.51103C4.33552 5.40554 4.37557 5.27954 4.37559 5.15035V4.62457C4.37559 3.96153 4.63898 3.32565 5.10782 2.85681C5.57666 2.38796 6.21255 2.12457 6.87559 2.12457C7.53863 2.12457 8.17451 2.38796 8.64335 2.85681C9.1122 3.32565 9.37559 3.96153 9.37559 4.62457V9.95739C8.68927 9.34011 7.79866 8.99889 6.87559 8.99957C6.70983 8.99957 6.55086 9.06542 6.43364 9.18263C6.31643 9.29984 6.25059 9.45881 6.25059 9.62457C6.25059 9.79033 6.31643 9.9493 6.43364 10.0665C6.55086 10.1837 6.70983 10.2496 6.87559 10.2496C7.53863 10.2496 8.17451 10.513 8.64335 10.9818C9.1122 11.4506 9.37559 12.0865 9.37559 12.7496C9.37559 13.4126 9.1122 14.0485 8.64335 14.5173C8.17451 14.9862 7.53863 15.2496 6.87559 15.2496ZM15.0006 11.8121H14.3756C14.2098 11.8121 14.0509 11.8779 13.9336 11.9951C13.8164 12.1123 13.7506 12.2713 13.7506 12.4371C13.7506 12.6028 13.8164 12.7618 13.9336 12.879C14.0509 12.9962 14.2098 13.0621 14.3756 13.0621H15.0006C15.2047 13.0618 15.4086 13.0472 15.6107 13.0183C15.5588 13.4985 15.3689 13.9534 15.0639 14.328C14.759 14.7025 14.3521 14.9808 13.8924 15.129C13.4327 15.2772 12.9399 15.289 12.4735 15.1631C12.0072 15.0372 11.5874 14.7789 11.2648 14.4195C10.9421 14.06 10.7305 13.6148 10.6555 13.1377C10.5806 12.6605 10.6454 12.1719 10.8422 11.7308C11.0391 11.2897 11.3595 10.9151 11.7647 10.6522C12.1699 10.3894 12.6426 10.2495 13.1256 10.2496C13.2913 10.2496 13.4503 10.1837 13.5675 10.0665C13.6847 9.9493 13.7506 9.79033 13.7506 9.62457C13.7506 9.45881 13.6847 9.29984 13.5675 9.18263C13.4503 9.06542 13.2913 8.99957 13.1256 8.99957C12.2025 8.99889 11.3119 9.34011 10.6256 9.95739V4.62457C10.6256 3.96153 10.889 3.32565 11.3578 2.85681C11.8267 2.38796 12.4625 2.12457 13.1256 2.12457C13.7886 2.12457 14.4245 2.38796 14.8934 2.85681C15.3622 3.32565 15.6256 3.96153 15.6256 4.62457V5.15035C15.6256 5.27954 15.6657 5.40554 15.7402 5.51103C15.8148 5.61651 15.9202 5.6963 16.042 5.73942C16.738 5.98444 17.3248 6.46782 17.6986 7.10398C18.0724 7.74014 18.209 8.48805 18.0843 9.21527C17.9596 9.9425 17.5816 10.6021 17.0172 11.0774C16.4528 11.5527 15.7384 11.8129 15.0006 11.8121ZM16.2506 7.74957C16.2506 7.91533 16.1847 8.0743 16.0675 8.19151C15.9503 8.30872 15.7913 8.37457 15.6256 8.37457H15.3131C14.5672 8.37457 13.8518 8.07826 13.3244 7.55081C12.7969 7.02336 12.5006 6.30799 12.5006 5.56207V5.24957C12.5006 5.08381 12.5664 4.92484 12.6836 4.80763C12.8009 4.69042 12.9598 4.62457 13.1256 4.62457C13.2913 4.62457 13.4503 4.69042 13.5675 4.80763C13.6847 4.92484 13.7506 5.08381 13.7506 5.24957V5.56207C13.7506 5.97647 13.9152 6.3739 14.2082 6.66693C14.5013 6.95995 14.8987 7.12457 15.3131 7.12457H15.6256C15.7913 7.12457 15.9503 7.19042 16.0675 7.30763C16.1847 7.42484 16.2506 7.58381 16.2506 7.74957ZM4.68809 8.37457H4.37559C4.20983 8.37457 4.05085 8.30872 3.93364 8.19151C3.81643 8.0743 3.75059 7.91533 3.75059 7.74957C3.75059 7.58381 3.81643 7.42484 3.93364 7.30763C4.05085 7.19042 4.20983 7.12457 4.37559 7.12457H4.68809C5.10249 7.12457 5.49992 6.95995 5.79294 6.66693C6.08597 6.3739 6.25059 5.97647 6.25059 5.56207V5.24957C6.25059 5.08381 6.31643 4.92484 6.43364 4.80763C6.55086 4.69042 6.70983 4.62457 6.87559 4.62457C7.04135 4.62457 7.20032 4.69042 7.31753 4.80763C7.43474 4.92484 7.50059 5.08381 7.50059 5.24957V5.56207C7.50059 6.30799 7.20427 7.02336 6.67682 7.55081C6.14938 8.07826 5.43401 8.37457 4.68809 8.37457Z"/>
</mask>
<path d="M19.3756 8.68707C19.3748 7.85921 19.1395 7.04849 18.6971 6.34877C18.2547 5.64904 17.6231 5.08889 16.8756 4.73317V4.62457C16.8749 3.81928 16.6149 3.0356 16.1342 2.3895C15.6535 1.74341 14.9776 1.26922 14.2065 1.03709C13.4354 0.804969 12.61 0.827245 11.8526 1.10062C11.0951 1.374 10.4457 1.88396 10.0006 2.55504C9.55544 1.88396 8.90609 1.374 8.14861 1.10062C7.39114 0.827245 6.56578 0.804969 5.79466 1.03709C5.02354 1.26922 4.34763 1.74341 3.86694 2.3895C3.38625 3.0356 3.12631 3.81928 3.12559 4.62457V4.73317C2.37741 5.08792 1.74527 5.64771 1.30262 6.34748C0.859977 7.04725 0.625 7.85827 0.625 8.68629C0.625 9.51431 0.859977 10.3253 1.30262 11.0251C1.74527 11.7249 2.37741 12.2847 3.12559 12.6394V12.7496C3.12631 13.5549 3.38625 14.3385 3.86694 14.9846C4.34763 15.6307 5.02354 16.1049 5.79466 16.3371C6.56578 16.5692 7.39114 16.5469 8.14861 16.2735C8.90609 16.0001 9.55544 15.4902 10.0006 14.8191C10.4457 15.4902 11.0951 16.0001 11.8526 16.2735C12.61 16.5469 13.4354 16.5692 14.2065 16.3371C14.9776 16.1049 15.6535 15.6307 16.1342 14.9846C16.6149 14.3385 16.8749 13.5549 16.8756 12.7496V12.6394C17.623 12.284 18.2545 11.7241 18.6969 11.0246C19.1394 10.3252 19.3747 9.51471 19.3756 8.68707ZM6.87559 15.2496C6.25914 15.2495 5.66446 15.0216 5.20576 14.6098C4.74707 14.198 4.4567 13.6312 4.39043 13.0183C4.59254 13.0472 4.79643 13.0618 5.00059 13.0621H5.62559C5.79135 13.0621 5.95032 12.9962 6.06753 12.879C6.18474 12.7618 6.25059 12.6028 6.25059 12.4371C6.25059 12.2713 6.18474 12.1123 6.06753 11.9951C5.95032 11.8779 5.79135 11.8121 5.62559 11.8121H5.00059C4.26274 11.8129 3.54839 11.5527 2.98401 11.0774C2.41962 10.6021 2.04161 9.9425 1.9169 9.21527C1.79218 8.48805 1.92881 7.74014 2.3026 7.10398C2.67638 6.46782 3.26321 5.98444 3.95918 5.73942C4.08096 5.6963 4.18638 5.61651 4.26095 5.51103C4.33552 5.40554 4.37557 5.27954 4.37559 5.15035V4.62457C4.37559 3.96153 4.63898 3.32565 5.10782 2.85681C5.57666 2.38796 6.21255 2.12457 6.87559 2.12457C7.53863 2.12457 8.17451 2.38796 8.64335 2.85681C9.1122 3.32565 9.37559 3.96153 9.37559 4.62457V9.95739C8.68927 9.34011 7.79866 8.99889 6.87559 8.99957C6.70983 8.99957 6.55086 9.06542 6.43364 9.18263C6.31643 9.29984 6.25059 9.45881 6.25059 9.62457C6.25059 9.79033 6.31643 9.9493 6.43364 10.0665C6.55086 10.1837 6.70983 10.2496 6.87559 10.2496C7.53863 10.2496 8.17451 10.513 8.64335 10.9818C9.1122 11.4506 9.37559 12.0865 9.37559 12.7496C9.37559 13.4126 9.1122 14.0485 8.64335 14.5173C8.17451 14.9862 7.53863 15.2496 6.87559 15.2496ZM15.0006 11.8121H14.3756C14.2098 11.8121 14.0509 11.8779 13.9336 11.9951C13.8164 12.1123 13.7506 12.2713 13.7506 12.4371C13.7506 12.6028 13.8164 12.7618 13.9336 12.879C14.0509 12.9962 14.2098 13.0621 14.3756 13.0621H15.0006C15.2047 13.0618 15.4086 13.0472 15.6107 13.0183C15.5588 13.4985 15.3689 13.9534 15.0639 14.328C14.759 14.7025 14.3521 14.9808 13.8924 15.129C13.4327 15.2772 12.9399 15.289 12.4735 15.1631C12.0072 15.0372 11.5874 14.7789 11.2648 14.4195C10.9421 14.06 10.7305 13.6148 10.6555 13.1377C10.5806 12.6605 10.6454 12.1719 10.8422 11.7308C11.0391 11.2897 11.3595 10.9151 11.7647 10.6522C12.1699 10.3894 12.6426 10.2495 13.1256 10.2496C13.2913 10.2496 13.4503 10.1837 13.5675 10.0665C13.6847 9.9493 13.7506 9.79033 13.7506 9.62457C13.7506 9.45881 13.6847 9.29984 13.5675 9.18263C13.4503 9.06542 13.2913 8.99957 13.1256 8.99957C12.2025 8.99889 11.3119 9.34011 10.6256 9.95739V4.62457C10.6256 3.96153 10.889 3.32565 11.3578 2.85681C11.8267 2.38796 12.4625 2.12457 13.1256 2.12457C13.7886 2.12457 14.4245 2.38796 14.8934 2.85681C15.3622 3.32565 15.6256 3.96153 15.6256 4.62457V5.15035C15.6256 5.27954 15.6657 5.40554 15.7402 5.51103C15.8148 5.61651 15.9202 5.6963 16.042 5.73942C16.738 5.98444 17.3248 6.46782 17.6986 7.10398C18.0724 7.74014 18.209 8.48805 18.0843 9.21527C17.9596 9.9425 17.5816 10.6021 17.0172 11.0774C16.4528 11.5527 15.7384 11.8129 15.0006 11.8121ZM16.2506 7.74957C16.2506 7.91533 16.1847 8.0743 16.0675 8.19151C15.9503 8.30872 15.7913 8.37457 15.6256 8.37457H15.3131C14.5672 8.37457 13.8518 8.07826 13.3244 7.55081C12.7969 7.02336 12.5006 6.30799 12.5006 5.56207V5.24957C12.5006 5.08381 12.5664 4.92484 12.6836 4.80763C12.8009 4.69042 12.9598 4.62457 13.1256 4.62457C13.2913 4.62457 13.4503 4.69042 13.5675 4.80763C13.6847 4.92484 13.7506 5.08381 13.7506 5.24957V5.56207C13.7506 5.97647 13.9152 6.3739 14.2082 6.66693C14.5013 6.95995 14.8987 7.12457 15.3131 7.12457H15.6256C15.7913 7.12457 15.9503 7.19042 16.0675 7.30763C16.1847 7.42484 16.2506 7.58381 16.2506 7.74957ZM4.68809 8.37457H4.37559C4.20983 8.37457 4.05085 8.30872 3.93364 8.19151C3.81643 8.0743 3.75059 7.91533 3.75059 7.74957C3.75059 7.58381 3.81643 7.42484 3.93364 7.30763C4.05085 7.19042 4.20983 7.12457 4.37559 7.12457H4.68809C5.10249 7.12457 5.49992 6.95995 5.79294 6.66693C6.08597 6.3739 6.25059 5.97647 6.25059 5.56207V5.24957C6.25059 5.08381 6.31643 4.92484 6.43364 4.80763C6.55086 4.69042 6.70983 4.62457 6.87559 4.62457C7.04135 4.62457 7.20032 4.69042 7.31753 4.80763C7.43474 4.92484 7.50059 5.08381 7.50059 5.24957V5.56207C7.50059 6.30799 7.20427 7.02336 6.67682 7.55081C6.14938 8.07826 5.43401 8.37457 4.68809 8.37457Z" fill="#F8F8F8" stroke="#F8F8F8" stroke-width="2" mask="url(#path-1-inside-1_1352_888)"/>
</svg>
